HIERARCHY
ROOT Hips
{
	OFFSET 0.000000 0.000000 0.000000 
	CHANNELS 6 Xposition Yposition Zposition Yrotation Zrotation Xrotation 
	JOINT Lumbar
	{
		OFFSET 0.000000 0.000000 0.000000 
		CHANNELS 3 Zrotation Xrotation Yrotation
		JOINT Neck
		{
			OFFSET 0.000000 0.445665 0.000000 
			CHANNELS 3 Zrotation Xrotation Yrotation
			End Site
			{
				OFFSET 0.000000 0.227535 0.000000 
			}
		}
		JOINT RightShoulder
		{
			OFFSET 0.019635 0.377685 0.194865 
			CHANNELS 3 Zrotation Xrotation Yrotation
			JOINT RightElbow
			{
				OFFSET 0.000000 -0.243375 0.000000 
				CHANNELS 2 Zrotation Yrotation
				JOINT RightWrist
				{
					OFFSET 0.000000 -0.264825 0.000000 
					CHANNELS 2 Zrotation Xrotation
					End Site
					{
						OFFSET 0.006600 -0.176220 0.000990 
					}
				}
			}
		}
		JOINT LeftShoulder
		{
			OFFSET 0.019635 0.377685 -0.194865 
			CHANNELS 3 Zrotation Xrotation Yrotation
			JOINT LeftElbow
			{
				OFFSET 0.000000 -0.243375 0.000000 
				CHANNELS 2 Zrotation Yrotation
				JOINT LeftWrist
				{
					OFFSET 0.000000 -0.264825 0.000000 
					CHANNELS 2 Zrotation Xrotation
					End Site
					{
						OFFSET 0.006600 -0.176220 -0.000990 
					}
				}
			}
		}
	}
	JOINT RightHip
	{
		OFFSET 0.052140 -0.069960 0.075570 
		CHANNELS 3 Zrotation Xrotation Yrotation
		JOINT RightKnee
		{
			OFFSET 0.000000 -0.402270 0.000000 
			CHANNELS 1 Zrotation
			JOINT RightAnkle
			{
				OFFSET 0.000000 -0.404085 0.000000 
				CHANNELS 3 Zrotation Xrotation Yrotation
				End Site
				{
					OFFSET 0.204105 -0.089430 0.008415 
				}
			}
		}
	}
	JOINT LeftHip
	{
		OFFSET 0.052140 -0.069960 -0.075570 
		CHANNELS 3 Zrotation Xrotation Yrotation
		JOINT LeftKnee
		{
			OFFSET 0.000000 -0.402270 0.000000 
			CHANNELS 1 Zrotation
			JOINT LeftAnkle
			{
				OFFSET 0.000000 -0.404085 0.000000 
				CHANNELS 3 Zrotation Xrotation Yrotation
				End Site
				{
					OFFSET 0.204105 -0.089430 -0.008415 
				}
			}
		}
	}
}
MOTION
Frames: 16
Frame Time: 0.02
-1.10967 0.19794 -0.86941 214.67452 0 46.78087 5.09452 3.40113 -5.99934 -32.65572 -23.25694 -31.5343 16.58651 -4.9736 -54.60189 11.85997 114.55306 -25.08705 -8.71129 65.40861 39.12631 -51.62109 83.8744 -80.56474 11.98748 3.70302 71.13017 0.82206 -17.20715 -127.81825 10.09649 3.41683 10.09597 93.0368 5.96245 28.12079 -106.44181 4.56435 -1.57945 -10.61715
-1.11784 0.17804 -0.8736 218.28996 0 44.60559 8.2473 2.30988 -8.01786 -34.3341 -22.9931 -32.32025 16.84525 -3.13568 -57.24734 11.09977 115.67751 -24.43124 -9.06998 64.90457 37.18792 -51.70081 83.56078 -79.98098 13.75179 3.48494 73.93763 1.42722 -21.27051 -128.48837 10.92613 3.54748 9.34749 97.05042 5.38375 26.38427 -107.8432 3.87447 -1.44835 -10.61525
-1.12646 0.1585 -0.87736 222.0753 0 41.68798 11.26702 1.67928 -10.71913 -36.05405 -22.46492 -32.80464 17.68414 -1.6368 -60.48779 10.31876 117.31449 -23.8974 -9.51688 64.41982 35.35032 -51.76782 83.18268 -80.54918 14.42315 3.47429 76.57954 1.76951 -26.18076 -129.08314 11.35958 3.51659 8.363 101.29333 4.75404 24.47882 -109.32788 2.97718 -1.28087 -10.61038
-1.13474 0.139 -0.88124 225.71584 0 39.19436 14.29862 0.79956 -13.07453 -37.79983 -22.08786 -33.44723 18.28837 0.03243 -63.26109 9.56368 118.60979 -23.33039 -9.89591 63.97972 33.52328 -51.83589 82.83521 -80.4926 15.60267 3.37713 79.27006 2.24036 -30.59137 -129.70382 11.95698 3.49577 7.44029 105.3541 4.18242 22.7173 -110.74498 2.16692 -1.13089 -10.60555
-1.14364 0.11852 -0.8854 229.65728 0 36.33111 17.54948 0.07388 -15.57943 -39.36915 -21.56454 -34.01035 18.7775 1.63606 -66.85088 8.74059 120.36267 -22.67048 -10.39177 63.30868 31.45061 -51.91695 82.47428 -80.8155 16.75233 3.23954 82.07979 2.67147 -35.46504 -130.38401 12.60911 3.72843 6.70562 109.759 3.46382 20.67187 -112.29521 1.39547 -0.97947 -10.60062
-1.15132 0.10021 -0.88888 233.00424 0 34.06059 20.30441 -0.85133 -17.93744 -41.30376 -21.29482 -34.65413 19.63693 3.28907 -68.89884 8.0534 121.2863 -22.23642 -10.66598 63.119 29.90819 -51.97068 82.12555 -80.65199 17.70017 3.23599 84.60343 3.12612 -39.58109 -130.91375 13.05572 3.41417 5.52682 113.49578 3.03733 19.17482 -113.58478 0.49352 -0.82193 -10.59846
-1.15574 0.0877 -0.89059 234.69252 0 33.63748 21.7477 -2.52124 -19.69548 -44.32736 -21.71573 -35.71336 21.43173 5.22946 -66.3809 7.75004 119.76759 -22.34826 -10.29846 64.33167 29.91116 -51.95104 81.87131 -78.71566 18.32398 3.58168 86.32181 3.6747 -41.42811 -131.03628 13.06354 1.45403 3.15847 115.32963 3.45444 19.27112 -114.13658 -0.75543 -0.64914 -10.5901
-1.15888 0.07738 -0.89163 235.7694 0 33.83168 22.68908 -4.39163 -21.2856 -47.69909 -22.41417 -36.84352 23.56854 7.21869 -62.31266 7.58365 117.39625 -22.69036 -9.70571 66.01488 30.42947 -51.90545 81.62563 -76.28237 18.78524 4.05124 87.76375 4.26081 -42.48122 -131.0079 12.87528 -1.01949 0.35901 116.48049 4.16454 19.91889 -114.42152 -2.12518 -0.47205 -10.58724
-1.16248 0.06612 -0.89297 237.10931 0 33.72558 23.84333 -6.11643 -22.97208 -50.85228 -23.03797 -37.86161 25.51267 9.14177 -59.07184 7.35174 115.43996 -22.95896 -9.22217 67.43404 30.64165 -51.87349 81.34725 -74.17868 19.3408 4.44573 89.37093 4.85475 -43.8815 -131.05218 12.75735 -3.1422 -2.23373 117.94424 4.72267 20.28963 -114.82627 -3.4143 -0.30155 -10.59299
-1.1666 0.05462 -0.89431 238.52132 0 33.67825 25.06167 -8.05603 -24.60358 -54.26413 -23.44295 -39.20049 27.63473 11.23983 -55.36806 7.13176 113.40753 -23.10456 -8.71531 69.06761 31.15038 -51.83348 81.18491 -71.67732 19.77422 4.92564 90.81758 5.34111 -45.3686 -131.07869 12.70165 -5.7627 -4.89511 119.40933 5.35197 20.76482 -115.24103 -4.81109 -0.11137 -10.55471
-1.16933 0.04416 -0.8955 239.63153 0 33.66308 26.02368 -9.6009 -26.29356 -57.21632 -24.36314 -39.89919 29.45934 12.98786 -52.20868 6.9212 111.29648 -23.55426 -8.19921 70.36362 31.17555 -51.80391 80.78771 -69.87036 20.43529 5.25549 92.51969 6.05557 -46.47519 -131.1052 12.47867 -7.47104 -7.49428 120.70188 5.9114 21.15699 -115.56951 -6.01967 0.03977 -10.60567
-1.16848 0.03598 -0.89631 240.09285 0 33.60514 26.44688 -10.01682 -28.24557 -58.8388 -26.72547 -38.75242 30.37954 13.77227 -51.31044 6.69122 109.41956 -24.8303 -7.73994 70.63477 29.62846 -51.81283 79.70624 -70.10789 21.78802 5.13056 95.1288 7.46377 -46.72272 -131.18585 11.81135 -6.49285 -9.97626 121.72127 6.13606 21.17564 -115.73225 -6.59218 0.06956 -10.9359
-1.16626 0.02878 -0.89701 240.26494 0 33.55878 26.62207 -10.0294 -30.24812 -59.98165 -29.58176 -36.97212 30.98514 14.20158 -50.94351 6.4688 107.44893 -26.39527 -7.27404 70.54611 27.59738 -51.83258 78.39422 -71.05494 23.37584 4.85118 97.98173 9.0882 -46.61077 -131.26894 10.98927 -4.58665 -12.35149 122.58249 6.29287 21.09515 -115.8156 -6.986 0.06175 -11.35021
-1.16468 0.02116 -0.89785 240.54463 0 33.49761 26.88029 -10.22187 -32.18451 -61.32786 -32.15601 -35.5225 31.7319 14.78558 -50.07749 6.25022 105.35458 -27.7998 -6.79233 70.60695 25.85994 -51.84532 77.21089 -71.66762 24.84715 4.64812 100.63425 10.56671 -46.66113 -131.33975 10.2612 -3.13134 -14.66709 123.4914 6.52803 21.06602 -115.93013 -7.51798 0.07962 -11.70257
-1.163 0.0135 -0.89834 240.90045 0 33.49616 27.24352 -10.43384 -34.29603 -62.74866 -34.98287 -33.89302 32.50021 15.39969 -50.23059 6.00369 103.91699 -29.33754 -6.38053 70.74182 23.82872 -51.86609 75.92913 -72.31307 26.35588 4.4237 103.6496 12.24638 -46.68965 -131.45184 9.42981 -1.56838 -17.44697 124.47934 6.57604 21.02603 -116.05607 -7.8152 0.06277 -12.15192
-1.16122 0.00614 -0.89951 241.04113 0 33.36722 27.33907 -10.50887 -36.05916 -63.89472 -37.39715 -32.48881 33.14239 15.86565 -48.42596 5.8179 101.12024 -30.66081 -5.82667 70.63289 22.28865 -51.8729 74.79467 -73.06626 27.84104 4.20535 105.97789 13.55941 -46.68749 -131.48124 8.77477 -0.00581 -19.23824 125.27323 6.98982 20.98216 -116.14289 -8.55567 0.10749 -12.42342
